<svg xmlns="http://www.w3.org/2000/svg" xmlns:xlink="http://www.w3.org/1999/xlink" version="1.1" width="425.197pt" height="425.197pt" viewBox="0 0 425.197 425.197">
<defs>
<clipPath id="clip_0">
<path transform="matrix(1,0,0,-1,0,425.197)" d="M0 425.197H425.197V0H0Z"/>
</clipPath>
</defs>
<g id="layer_1" data-name="Layer 1">
<g clip-path="url(#clip_0)">
<path transform="matrix(1,0,0,-1,212.5996,317.8224)" d="M0 0C-58.118 0-105.224 47.109-105.224 105.223-105.224 163.337-58.118 210.45 0 210.45 58.112 210.45 105.224 163.337 105.224 105.223 105.224 47.109 58.112 0 0 0" fill="#73253e"/>
<path transform="matrix(1,0,0,-1,212.5996,148.0798)" d="M0 0C35.637 0 64.521-28.881 64.521-64.521 64.521-100.156 35.637-129.046 0-129.046-35.637-129.046-64.527-100.156-64.527-64.521-64.527-28.881-35.637 0 0 0" fill="#005851"/>
<path transform="matrix(1,0,0,-1,179.8848,207.28919)" d="M0 0C2.58 1.485 5.417 2.845 8.366 4.021 8.982 1.325 9.734-1.322 10.61-3.884 8.302-4.834 6.097-5.91 4.079-7.072-7.143-13.554-11.315-21.321-12.004-26.406L13.768-11.531C14.384-12.777 15.037-13.977 15.714-15.115 16.357-16.275 17.073-17.443 17.85-18.601L-7.916-33.477C-3.173-35.438 5.644-35.703 16.865-29.215 23.853-25.186 30.993-18.65 35.606-12.168 36.664-10.69 37.471-9.366 38.111-8.201 38.664-7.293 39.208-6.266 39.775-5.095 42.419-5.524 45.163-6.192 47.854-7.041 47.009-8.975 46.078-10.798 45.075-12.46 40.181-21.296 30.563-30.74 20.947-36.288 13.242-40.744 5.139-42.906-1.831-42.83 7.251-51.205 19.385-56.334 32.715-56.334 43.217-56.334 52.976-53.158 61.085-47.719 65.675-48.385 70.17-48.346 74.252-47.465 63.568-57.997 48.9-64.492 32.715-64.492 10.807-64.492-8.321-52.592-18.554-34.896H-18.542C-24.323-24.876-16.031-9.254 0 0M52.961 11.111C50.323 11.919 47.652 12.595 44.996 13.11 45.323 15.586 45.498 18.032 45.498 20.366 45.498 33.327 40.866 40.826 36.8 43.964V14.205C35.406 14.296 34.044 14.329 32.721 14.315 31.388 14.329 30.023 14.296 28.63 14.205V43.964C24.563 40.826 19.925 33.327 19.925 20.366 19.925 12.297 22.019 2.846 25.321-4.387 26.077-6.037 26.814-7.411 27.506-8.541 28.02-9.469 28.63-10.46 29.367-11.538 27.669-13.604 25.727-15.656 23.642-17.562 22.388-15.855 21.276-14.137 20.339-12.444 15.143-3.778 11.771 9.262 11.771 20.366 11.771 29.296 13.955 37.4 17.511 43.402-3.239 36.935-18.307 17.577-18.307-5.312-18.307-6.438-18.271-7.561-18.198-8.673-21.08-12.32-23.291-16.249-24.569-20.228-25.812-15.462-26.468-10.46-26.468-5.312-26.468 27.374 .027 53.872 32.715 53.872V53.868C44.283 53.868 53.665 38.868 53.665 20.366 53.665 17.375 53.42 14.256 52.961 11.111M83.972-34.905H83.957C78.177-44.924 60.493-45.551 44.474-36.292 41.882-34.798 39.298-33.029 36.8-31.058 38.83-29.182 40.752-27.198 42.519-25.163 44.501-26.685 46.534-28.061 48.55-29.221 59.78-35.706 68.587-35.438 73.34-33.485L47.57-18.608C48.351-17.451 49.061-16.291 49.697-15.132 50.384-13.984 51.039-12.783 51.652-11.538L77.425-26.414C76.738-21.323 72.566-13.562 61.333-7.079 54.354-3.047 45.117-.126 37.198 .621 35.389 .796 33.839 .846 32.512 .812 31.452 .835 30.298 .801 28.992 .697 28.047 3.201 27.246 5.91 26.636 8.67 28.742 8.902 30.784 9.002 32.721 8.969 42.824 9.143 55.81 5.54 65.418-.007 73.149-4.471 79.074-10.414 82.497-16.498 83.298-12.896 83.736-9.154 83.736-5.312 83.736 14.781 72.128 32.155 55.248 40.477 53.525 44.79 51.235 48.665 48.432 51.757 73.491 44.87 91.899 21.931 91.899-5.312 91.899-16.095 89.005-26.202 83.972-34.905M-7.243-59.554C-7.173-60.966-8.261-62.158-9.674-62.226-11.077-62.3-12.267-61.211-12.339-59.806-12.403-58.399-11.315-57.198-9.913-57.132-8.505-57.065-7.309-58.151-7.243-59.554M-15.343-52.555C-16.745-52.624-17.826-53.815-17.763-55.223-17.696-56.633-16.5-57.718-15.092-57.648-13.687-57.58-12.605-56.383-12.672-54.979-12.732-53.565-13.941-52.481-15.343-52.555M32.715 99.916C-24.03 99.916-70.274 54.993-72.426-1.224H-52.12V-9.397H-72.426C-70.274-65.617-24.03-110.533 32.715-110.533 89.458-110.533 135.703-65.617 137.852-9.397H117.551V-1.224H137.852C135.703 54.993 89.458 99.916 32.715 99.916M32.715-118.696C-29.909-118.696-80.672-67.936-80.672-5.312-80.672 57.313-29.909 108.078 32.715 108.078 95.335 108.078 146.1 57.313 146.1-5.312 146.1-67.936 95.335-118.696 32.715-118.696M22.708 67.554H28.605V76.255H36.814V67.554H42.709V89.784H36.814V81.656H28.605V89.784H22.708ZM114.424 44.014 121.53 29.682 116.971 27.414 112.475 36.462 109.408 34.931 113.095 27.499 108.795 25.361 105.1 32.803 101.707 31.108 106.505 21.435 101.934 19.169 94.513 34.131ZM70.303 57.202 75.5 53.759 94.534 67.815 89.286 71.296 76.848 60.982 81.234 76.64 75.868 80.189ZM-8.605 65.307-15.022 70.921-12.868 62.637ZM-20.45 73.617-14.714 77.21 3.749 62.541-1.638 59.17-5.297 62.299-11.602 58.353-10.4 53.674-15.563 50.438ZM-37.26 17.17-34.755 22.514-40.655 25.296-41.993 28.245-31.545 29.321-28.48 35.805-44.499 33.883-49.092 44.228-52.035 37.99-47.325 28.437-54.858 31.99-57.375 26.648ZM100.278-33.999 102.365-28.482 123.155-36.345 121.067-41.862ZM99.16-70.823C100.592-70.641 102.009-70.134 103.411-69.338 104.804-68.533 106.196-67.264 107.587-65.529 108.366-64.557 108.967-63.537 109.384-62.461 109.798-61.391 110.019-60.342 110.034-59.319 110.067-58.292 109.886-57.323 109.508-56.416 109.134-55.494 108.547-54.724 107.744-54.079 106.822-53.345 105.925-52.882 105.046-52.683 104.157-52.492 103.309-52.467 102.498-52.613 101.683-52.759 100.906-53.035 100.166-53.439 99.426-53.848 98.728-54.268 98.069-54.698L97.139-55.323C96.725-55.596 96.332-55.842 95.963-56.076 95.595-56.301 95.25-56.476 94.934-56.591 94.606-56.706 94.302-56.751 94.009-56.729 93.719-56.706 93.44-56.591 93.178-56.383 92.936-56.185 92.772-55.967 92.703-55.723 92.628-55.478 92.612-55.223 92.652-54.955 92.694-54.689 92.772-54.425 92.912-54.159 93.042-53.893 93.187-53.644 93.371-53.423 93.93-52.725 94.606-52.163 95.426-51.729 96.238-51.304 97.111-50.964 98.051-50.722L96.96-46.001C96.601-46.028 96.15-46.119 95.595-46.271 95.045-46.429 94.443-46.68 93.8-47.018 93.159-47.354 92.479-47.813 91.77-48.376 91.057-48.948 90.365-49.663 89.682-50.509 88.806-51.603 88.181-52.682 87.791-53.743 87.419-54.798 87.259-55.822 87.319-56.792 87.38-57.768 87.631-58.674 88.081-59.521 88.528-60.361 89.153-61.099 89.951-61.742 90.661-62.313 91.386-62.675 92.139-62.83 92.891-62.982 93.619-63.005 94.362-62.877 95.097-62.759 95.827-62.532 96.534-62.212 97.25-61.886 97.918-61.524 98.517-61.132L99.602-60.414C100.604-59.762 101.432-59.331 102.103-59.104 102.762-58.883 103.32-58.949 103.771-59.313 104.043-59.538 104.227-59.778 104.302-60.035 104.381-60.298 104.39-60.563 104.339-60.831 104.287-61.115 104.193-61.391 104.039-61.664 103.889-61.948 103.722-62.194 103.541-62.416 102.792-63.354 101.909-64.056 100.879-64.518 99.854-64.979 98.909-65.259 98.039-65.352ZM76.08-80.384 70.02-74.384 71.653-82.784ZM64.769-71.352 70.714-68.122 88.234-83.911 82.64-86.951 79.183-83.593 72.647-87.134 73.554-91.877 68.194-94.787ZM41.153-100.535 47.015-99.845 45.96-91.006 52.269-76.825 45.752-77.602 42.649-85.955 37.41-78.591 30.687-79.39 40.114-91.729ZM2.142-72.704 7.287-74.246 11.898-88.578 15.454-76.698 21.043-78.376 14.647-99.671 9.828-98.225 5.009-83.443 1.338-95.677-4.248-93.998ZM-31.286-64.829C-32.236-65.927-32.902-67.057-33.297-68.229-33.693-69.399-33.822-70.559-33.693-71.719-33.561-72.878-33.193-73.997-32.572-75.086-31.954-76.175-31.116-77.175-30.059-78.093-28.998-79.01-27.89-79.687-26.732-80.127-25.566-80.569-24.409-80.77-23.237-80.724-22.066-80.682-20.93-80.375-19.833-79.809-18.732-79.256-17.714-78.434-16.787-77.355L-7.916-67.087-12.433-63.189-20.953-73.056C-21.741-73.961-22.598-74.535-23.539-74.766-24.463-74.998-25.432-74.688-26.423-73.831-27.417-72.978-27.87-72.067-27.796-71.105-27.714-70.149-27.271-69.206-26.483-68.283L-17.956-58.416-22.427-54.558ZM-49.57-42.705C-48.733-44.453-47.595-45.566-46.149-46.047-44.706-46.525-43.189-46.387-41.604-45.636-40.797-45.257-40.129-44.797-39.575-44.269-39.033-43.735-38.632-43.134-38.376-42.459-38.111-41.78-38.014-41.039-38.082-40.233-38.143-39.424-38.398-38.555-38.856-37.611L-39.876-35.438-50.595-40.538ZM-37.752-27.892-34.083-35.602C-33.345-37.147-32.875-38.667-32.644-40.176-32.421-41.681-32.491-43.112-32.854-44.468-33.219-45.82-33.916-47.072-34.941-48.228-35.971-49.379-37.358-50.373-39.106-51.199-40.768-51.994-42.349-52.408-43.85-52.439-45.346-52.475-46.736-52.21-48.028-51.645-49.319-51.072-50.487-50.23-51.533-49.098-52.574-47.971-53.448-46.644-54.18-45.117L-57.825-37.446Z" fill="#f6e849"/>
</g>
</g>
</svg>
